<mxfile host="Electron" modified="2023-08-18T13:09:01.733Z" agent="Mozilla/5.0 (Windows NT 10.0; Win64; x64) AppleWebKit/537.36 (KHTML, like Gecko) draw.io/21.6.1 Chrome/112.0.5615.204 Electron/24.6.1 Safari/537.36" etag="faCz7yMmO0FybO_Q8BKr" version="21.6.1" type="device">
  <diagram name="页-1" id="Page-1">
    <mxGraphModel dx="1100" dy="719" grid="1" gridSize="10" guides="1" tooltips="1" connect="1" arrows="1" fold="1" page="1" pageScale="1" pageWidth="827" pageHeight="1169" math="0" shadow="0">
      <root>
        <mxCell id="0" />
        <mxCell id="1" parent="0" />
        <UserObject label="" tags="背景" id="2">
          <mxCell style="vsdxID=4;fillColor=none;gradientColor=none;strokeColor=none;spacingTop=-3;spacingBottom=-3;spacingLeft=-3;spacingRight=-3;points=[];labelBackgroundColor=none;rounded=0;html=1;whiteSpace=wrap;" parent="1" vertex="1">
            <mxGeometry x="60" y="167" width="77" height="93" as="geometry" />
          </mxCell>
        </UserObject>
        <mxCell id="3" style="vsdxID=5;fillColor=#000000;gradientColor=none;shape=stencil(lVnZcls3DP0avXJIgOtzmv5HpnFqTV074zit8/cBo0uCPJSo9k2mCB1iO1h84g/fHj99fTiR/fb2+vLXw7/nz2+PJ/7tRHR+fnx4Pb/JpxN/PPGHLy+vD3++vnx//nz5++unerN++vvln/oL7xe5lEzwVYrsj8sJFePdr5PfLwJ/fH+9SLguUg4J10XCcfROx6VsKB63qN9Kx9E791vRHbe43ypphH86P4/vLSaW6b1sTdgLpPm+M9Fv9dN3NgXZm8SgYDHsZgU5GfaLgu2oKcgiGO7Y1/OM750hgI/GlhneUzOEwnt95HHk2ey1Z/3hhh5NQfeKEcG9wRqmGT6Ks3iGD2wc7fCjGHGGD1HNemBFb4gAPpsM8KGYnGb4aI3bGj9IcNOMLzIJ8AOZEmb86IwFfJ+NW/HLFl/cE8KCD9bnbArEnlwKAC/haAG+WmSb29zdo+bPPYY6vtWobhYJJuUZn4QC0Ptk4tb7FBv5aPQJIUDuUTCOZ3yJ0VQA3xt7JfjzFp+Mg9yXtIoZ8CUiEuA7tdIB5sTYa+77uMN3uTlIuUfpoOG7vNi/MhQkv9zyoH/lPr7NlVWieV/JNWwEhPin+5W99woWNZ1Wj9W+FtJLLkUoHqSEMxSPwHfgMb5dapSg9i2dSRu+W8l1jMLGt3eonUMrbh3eArNZDZrjyPZK2mndmQzIsdHW7aLGEFiiUq/HWtQyJJbYggF9aBnU7nPPADX4fpMxdyXBawk+9AuGNggi0Gn7EMjG+o0AmZwngWSBG0FACG5GyNHQ7fu1jhGqsGtUclC66gJ2y1bFG9fs2vxMzU4azdbOLs3FWPBpySY0g/MsdvWxdnooXMVnSgBDSSuSuml+JRmGfkY6kebTTmkQd9WkGydrLzmYNMbbAl7CaA5UcbLdCSSTZgasYbS5L1EETt7HqQjkRQXa1nApmAmiokYS1BBp1zIYfLzVCvaQiHwDf8nEe6k757okSpkzUYjVbsmsdkRQpYUAXVw09KAhDVzfWgLSVrKxGZttEZEqbsHApIz8rhWZM8B7k4HKa4HNAO8hqJcmpWiuDH0TJlTuHeGP4QibJACX9+RNhyAGDLOzmNpAdl0gIA2KQNjGr+gP2onIop3vR70FoqUFvtIC1vdua7R4Py/wiM46tyo6NmDURq0RPN8D9+vsWdwCD5HFsTXWo+4+AHyb3G+hDyVoiPW1+86ofOk02OHj0qN4C3kNoZK19+4CvCHfGs48C7g7/TUNE2mjS998Ms43GQwss5wFDbkPMzrfWCgvC3XI4ArUIROxhf5XvIm7hYDg0sgWAO8rgVuFwRrEjn3abNhiDoIWUG5lmG3EHBQW+LzVPfTEH/F7iVcwnK3qEQR3WEfruibYwcuAzqi+kBMEd1wzWxzkIbOlpDEQZ3AtUW4vNgiIRayIi43cllMaeaGP8cNepe06em65fQdur+XWbm3mcBSs2bvfC5KKKHsk8K90dQ6qcl1n4OKK+8JtIK+831z5Nn0pftSpjfqtiPi+t0LD4ixd4e50Bz8gdxOOtvWRa91KOGL5JbuXOntlcYdtH9OqPms9HuompLe4so9Tih82jYEEGDS2S6FdBGburqS75Y9YsDBLAUigX9R61bueuGwGx55Tp/ldcfoPXer/bmvlg67lv5yfni5b/fF7XOPL0eVfAPzxJw==);strokeColor=none;strokeWidth=0;spacingTop=-3;spacingBottom=-3;spacingLeft=-3;spacingRight=-3;points=[];labelBackgroundColor=none;rounded=0;html=1;whiteSpace=wrap;" parent="2" vertex="1">
          <mxGeometry width="77" height="93" as="geometry" />
        </mxCell>
        <UserObject label="" tags="背景" id="4">
          <mxCell style="vsdxID=6;fillColor=none;gradientColor=none;strokeColor=none;spacingTop=-3;spacingBottom=-3;spacingLeft=-3;spacingRight=-3;points=[];labelBackgroundColor=none;rounded=0;html=1;whiteSpace=wrap;" parent="1" vertex="1">
            <mxGeometry x="280" y="180" width="87" height="80" as="geometry" />
          </mxCell>
        </UserObject>
        <mxCell id="5" style="vsdxID=7;fillColor=#333333;gradientColor=none;shape=stencil(lZfbUlsxDEW/Jq8a2/L1mcJ/MCWUTClhQmjp31en5/i2nZjhLXGkLFmWtuwd37w93b/ud0a9nU/Hn/s/h4fz046/7Yw5vDztT4ezfNrx7Y5vHo+n/Y/T8f3lYf3+er9YLp9+HX8v//Cx+ulAMS5eRv3dVpT6//1uNf/+flrt9fazp5Q2B917qA9TbHTYbLallMjzZsWblSPnNqttKUVKYUq3lGxPFx/WwLfkEvADWcA3RhnvyfoW/3x4aXPVeKwrQVPUn8TrIFvi48d4revjFau81ARsQh/wYmWmfEU2Al+VE898puB7vE/EHvAlzZnuHak4oyvSuod7QwngCsgqn0FDVkB2MS9dITN5KBM3pl3+xPZwG4AswQDaWor8xZSLT05wOXJFjgFuyY98Zwe+m7eIJtg6B9IM+DBUnOrRzpCC9pjqgpRV8j0XVCF6MrpnJjI9NZkqR9uSkbTM8616rJV6MT06OYoG6kyjIMTSTIUdJf/TOhMfhl0vPlDiixVUmljhYbdWlR8mgtR61I26zwJGAQ1ZxErAIVEcBZxTH3CQBkIBL1bXykSKAPnNP2e+NAzymyh5tOIr++8T1nqUnfK0nVsXXfbtIF43SEkI5DFfrvY8Fys1Py+ZiNzjXRrOK3Ft1qwmusRdCszX4ZmbK3yiJku9wPZlDgWQEy8zGAcYKZBxURTQ0mJzrbVTbr+a+/q3VcoUKqkjjdPe1zxmJfXQXBeuOhH2bsdeESuOwI8UIvDdcNuwKQ+XyWUHJ0mihGdP0CnOlsP4qIkGZZMxG6cH7we2uKTQsxujKqsKy36Ea9LTi0OgcOHigDOMh8R7uUjhLTPW8uBi5ad4qbuAm68ykPlyL9FQ9F5qASbaYuWBH/MgvChSrUeZivMx1Lro4oNdulzhoFPEKukhYFSpanUxYE74hhgcMGBRJ5+GgLG0LY/vCEtQ261Rc4+fqmrrU58RFuhNjHUIJqjudvOMVpefEcOT68sO8EaTD/V993h4fl6fh+3v+B6UpfUtybf/AA==);strokeColor=none;strokeWidth=0;spacingTop=-3;spacingBottom=-3;spacingLeft=-3;spacingRight=-3;points=[];labelBackgroundColor=none;rounded=0;html=1;whiteSpace=wrap;" parent="4" vertex="1">
          <mxGeometry width="87.00000000000001" height="80" as="geometry" />
        </mxCell>
        <mxCell id="6" style="vsdxID=8;fillColor=#333333;gradientColor=none;shape=stencil(lVfLctswDPwaXTEkwOc5bf8j0ziNp2mccZI2/fvSlQgSoMW0N1leCAtgsZQWunl5uH0+LGheXs+n74dfx7vXh4U+LYjHp4fD+fharhb6vNDN/el8+HY+vT3drb+fby/Iy9WP08/LE97XuODAxksUmt/rHWvM399fVvjXt/OKt1uAgYq3MsC843rDR/B5w2y3cqxR77SBAjjcQNut7ABjn/vx+NRR9RbQC6oxAbkZ2RJiSbKNEbJXfEtJUfItqKAJG6AkCTfUVcJIgJKvxmu+iJDswJeZIKOcG/hmknwLilSDL/2y+3xtgESCcJnItL/Wt0lbnrTmaxF8knxzhiTpZkAr2TJmJ3kCDCp3e2rtSy24zxxQpi5KHFPjNDcC0lC3KtuoxAhZScoCBZk4JXB5oqhCvlLdVAmRZkSp0zZzJ0mUCJKaj5FEKQ5MpybhDChZGDAqq3Ng1GyQN6wmdr4tcN1DSGG/QxHByKUrLQ1TEUcCJ8lmApOVkCwY5RE5cQGspLJBbtFS8naWPnjWRa9j5VEFpZrVbLcm76ycJOZqqz60fnlSFA1YqT1iv9gTX6jq5NJaTJNfaOJCzmWUEgoKVWsLys3sN7EIN+XkGdkC197rM9sHe2+q8mOyBbUJrHlvZrmzbDPM02c+LNpJa5UKCsipk7WgyA7ZozqpGupqq8ouqtkOAcOKO701PZO242Hky1URo1L4v24VXzBKWf0YsKGUsfUjbelz0un3e1VUl6WuBh0OexAhqRXvFd5E70my7belid6q02rYw4HwR4srNz3bdmawIVGYVZgioJJvi+EKEw0VZg9BFtiDqodOpNvD63uBm/p9H1GnwbbNVLuC6pk4eFLfKFKgneQ5tDcSOzxXWzvroPEjDaHrVatXO4Yz8+2Y3OOZ21LYNipl3aUaHN/sKHzYpkFQku4/KLBctG+a++Pj4/pJ1P+vv4HKrfX7iT7/AQ==);strokeColor=none;strokeWidth=0;spacingTop=-3;spacingBottom=-3;spacingLeft=-3;spacingRight=-3;points=[];labelBackgroundColor=none;rounded=0;html=1;whiteSpace=wrap;" parent="4" vertex="1">
          <mxGeometry x="25.329113924050635" y="21.62162162162162" width="34.139240506329116" height="32.43243243243243" as="geometry" />
        </mxCell>
        <UserObject label="" tags="连接线" id="29">
          <mxCell style="vsdxID=12;edgeStyle=none;startArrow=none;endArrow=block;startSize=9;endSize=9;strokeWidth=3;spacingTop=0;spacingBottom=0;spacingLeft=0;spacingRight=0;verticalAlign=middle;html=1;labelBackgroundColor=#ffffff;rounded=0;" parent="1" edge="1">
            <mxGeometry relative="1" as="geometry">
              <mxPoint x="-1" as="offset" />
              <Array as="points" />
              <mxPoint x="155" y="199" as="sourcePoint" />
              <mxPoint x="270" y="199" as="targetPoint" />
            </mxGeometry>
          </mxCell>
        </UserObject>
        <UserObject label="" tags="连接线" id="30">
          <mxCell style="vsdxID=14;edgeStyle=none;startArrow=block;endArrow=none;startSize=9;endSize=9;strokeWidth=3;spacingTop=0;spacingBottom=0;spacingLeft=0;spacingRight=0;verticalAlign=middle;html=1;labelBackgroundColor=#ffffff;rounded=0;" parent="1" edge="1">
            <mxGeometry relative="1" as="geometry">
              <mxPoint x="-1" as="offset" />
              <Array as="points" />
              <mxPoint x="145" y="249" as="sourcePoint" />
              <mxPoint x="261" y="249" as="targetPoint" />
            </mxGeometry>
          </mxCell>
        </UserObject>
        <UserObject label="&lt;div style=&quot;font-size: 1px&quot;&gt;&lt;font style=&quot;font-size:16.93px;font-family:Times New Roman;color:#000000;direction:ltr;letter-spacing:0px;line-height:120%;opacity:1&quot;&gt;&lt;b&gt;Problem&lt;br/&gt;&lt;/b&gt;&lt;/font&gt;&lt;/div&gt;" tags="背景" id="7">
          <mxCell style="verticalAlign=middle;align=center;overflow=width;vsdxID=15;fillColor=none;gradientColor=none;shape=stencil(nZBLDoAgDERP0z3SIyjew0SURgSD+Lu9kMZoXLhwN9O+tukAlrNpJg1SzDH4QW/URgNYgZTkjA4UkwJUgGXng+6DX1zLfmoymdXo17xh5zmRJ6Q42BWCfc2oJfdAr+Yv+AP9Cb7OJ3H/2JG1HNGz/84klThPVCc=);strokeColor=none;points=[];labelBackgroundColor=none;rounded=0;html=1;whiteSpace=wrap;" parent="1" vertex="1">
            <mxGeometry x="153" y="169" width="110" height="30" as="geometry" />
          </mxCell>
        </UserObject>
        <UserObject label="&lt;div style=&quot;&quot;&gt;&lt;font style=&quot;font-family: &amp;quot;Times New Roman&amp;quot;; color: rgb(0, 0, 0); direction: ltr; letter-spacing: 0px; line-height: 120%; opacity: 1;&quot;&gt;&lt;b style=&quot;&quot;&gt;&lt;font style=&quot;font-size: 16.93px;&quot;&gt;Question&lt;/font&gt;&lt;br&gt;&lt;/b&gt;&lt;/font&gt;&lt;/div&gt;" tags="背景" id="8">
          <mxCell style="verticalAlign=middle;align=center;overflow=width;vsdxID=17;fillColor=none;gradientColor=none;shape=stencil(nZBLDoAgDERP0z3SIyjew0SURgSD+Lu9kMZoXLhwN9O+tukAlrNpJg1SzDH4QW/URgNYgZTkjA4UkwJUgGXng+6DX1zLfmoymdXo17xh5zmRJ6Q42BWCfc2oJfdAr+Yv+AP9Cb7OJ3H/2JG1HNGz/84klThPVCc=);strokeColor=none;points=[];labelBackgroundColor=none;rounded=0;html=1;whiteSpace=wrap;" parent="1" vertex="1">
            <mxGeometry x="163" y="250" width="89" height="28" as="geometry" />
          </mxCell>
        </UserObject>
        <UserObject label="&lt;div style=&quot;font-size: 1px&quot;&gt;&lt;font style=&quot;font-size:16.93px;font-family:Times New Roman;color:#000000;direction:ltr;letter-spacing:0px;line-height:120%;opacity:1&quot;&gt;&lt;b&gt;Human&lt;br/&gt;&lt;/b&gt;&lt;/font&gt;&lt;/div&gt;" tags="背景" id="9">
          <mxCell style="verticalAlign=middle;align=center;overflow=width;vsdxID=28;fillColor=none;gradientColor=none;shape=stencil(nZBLDoAgDERP0z3SIyjew0SURgSD+Lu9kMZoXLhwN9O+tukAlrNpJg1SzDH4QW/URgNYgZTkjA4UkwJUgGXng+6DX1zLfmoymdXo17xh5zmRJ6Q42BWCfc2oJfdAr+Yv+AP9Cb7OJ3H/2JG1HNGz/84klThPVCc=);strokeColor=none;points=[];labelBackgroundColor=none;rounded=0;html=1;whiteSpace=wrap;" parent="1" vertex="1">
            <mxGeometry x="43" y="268.5" width="110" height="30" as="geometry" />
          </mxCell>
        </UserObject>
        <UserObject label="&lt;div style=&quot;font-size: 1px&quot;&gt;&lt;font style=&quot;font-size:16.93px;font-family:Times New Roman;color:#000000;direction:ltr;letter-spacing:0px;line-height:120%;opacity:1&quot;&gt;&lt;b&gt;Modeling Expert&lt;br/&gt;&lt;/b&gt;&lt;/font&gt;&lt;/div&gt;" tags="背景" id="10">
          <mxCell style="verticalAlign=middle;align=center;overflow=width;vsdxID=29;fillColor=none;gradientColor=none;shape=stencil(nZBLDoAgDERP0z3SIyjew0SURgSD+Lu9kMZoXLhwN9O+tukAlrNpJg1SzDH4QW/URgNYgZTkjA4UkwJUgGXng+6DX1zLfmoymdXo17xh5zmRJ6Q42BWCfc2oJfdAr+Yv+AP9Cb7OJ3H/2JG1HNGz/84klThPVCc=);strokeColor=none;points=[];labelBackgroundColor=none;rounded=0;html=1;whiteSpace=wrap;" parent="1" vertex="1">
            <mxGeometry x="280" y="266" width="87" height="44" as="geometry" />
          </mxCell>
        </UserObject>
        <UserObject label="" tags="连接线" id="33">
          <mxCell style="vsdxID=41;edgeStyle=none;startArrow=none;endArrow=block;startSize=9;endSize=9;strokeWidth=3;spacingTop=0;spacingBottom=0;spacingLeft=0;spacingRight=0;verticalAlign=middle;html=1;labelBackgroundColor=#ffffff;rounded=0;" parent="1" edge="1">
            <mxGeometry relative="1" as="geometry">
              <mxPoint x="-1" as="offset" />
              <Array as="points" />
              <mxPoint x="399" y="218.58" as="sourcePoint" />
              <mxPoint x="515" y="218.58" as="targetPoint" />
            </mxGeometry>
          </mxCell>
        </UserObject>
        <UserObject label="&lt;div style=&quot;font-size: 1px&quot;&gt;&lt;font style=&quot;font-size:16.93px;font-family:Times New Roman;color:#000000;direction:ltr;letter-spacing:0px;line-height:120%;opacity:1&quot;&gt;&lt;b&gt;Mathematical Model&lt;br&gt;&lt;/b&gt;&lt;/font&gt;&lt;/div&gt;" tags="背景" id="20">
          <mxCell style="verticalAlign=middle;align=center;overflow=width;vsdxID=43;fillColor=none;gradientColor=none;shape=stencil(nZBLDoAgDERP0z3SIyjew0SURgSD+Lu9kMZoXLhwN9O+tukAlrNpJg1SzDH4QW/URgNYgZTkjA4UkwJUgGXng+6DX1zLfmoymdXo17xh5zmRJ6Q42BWCfc2oJfdAr+Yv+AP9Cb7OJ3H/2JG1HNGz/84klThPVCc=);strokeColor=none;points=[];labelBackgroundColor=none;rounded=0;html=1;whiteSpace=wrap;" parent="1" vertex="1">
            <mxGeometry x="392" y="175" width="123" height="40" as="geometry" />
          </mxCell>
        </UserObject>
        <UserObject label="&lt;div style=&quot;font-size: 1px&quot;&gt;&lt;font style=&quot;font-size:16.93px;font-family:Times New Roman;color:#000000;direction:ltr;letter-spacing:0px;line-height:120%;opacity:1&quot;&gt;&lt;b&gt;Programmer&lt;br/&gt;&lt;/b&gt;&lt;/font&gt;&lt;/div&gt;" tags="背景" id="21">
          <mxCell style="verticalAlign=middle;align=center;overflow=width;vsdxID=45;fillColor=none;gradientColor=none;shape=stencil(nZBLDoAgDERP0z3SIyjew0SURgSD+Lu9kMZoXLhwN9O+tukAlrNpJg1SzDH4QW/URgNYgZTkjA4UkwJUgGXng+6DX1zLfmoymdXo17xh5zmRJ6Q42BWCfc2oJfdAr+Yv+AP9Cb7OJ3H/2JG1HNGz/84klThPVCc=);strokeColor=none;points=[];labelBackgroundColor=none;rounded=0;html=1;whiteSpace=wrap;" parent="1" vertex="1">
            <mxGeometry x="508.5" y="274.5" width="110" height="22" as="geometry" />
          </mxCell>
        </UserObject>
        <UserObject label="" tags="连接线" id="34">
          <mxCell style="vsdxID=55;edgeStyle=none;startArrow=none;endArrow=block;startSize=9;endSize=9;strokeWidth=3;spacingTop=0;spacingBottom=0;spacingLeft=0;spacingRight=0;verticalAlign=middle;html=1;labelBackgroundColor=#ffffff;rounded=0;entryX=-0.007;entryY=0.242;entryDx=0;entryDy=0;entryPerimeter=0;" parent="1" target="ssQb_-YuNbHTnixQjZuy-56" edge="1">
            <mxGeometry relative="1" as="geometry">
              <mxPoint x="-1" as="offset" />
              <Array as="points" />
              <mxPoint x="616" y="199" as="sourcePoint" />
              <mxPoint x="740" y="199" as="targetPoint" />
            </mxGeometry>
          </mxCell>
        </UserObject>
        <UserObject label="" tags="连接线" id="35">
          <mxCell style="vsdxID=56;edgeStyle=none;startArrow=block;endArrow=none;startSize=9;endSize=9;strokeWidth=3;spacingTop=0;spacingBottom=0;spacingLeft=0;spacingRight=0;verticalAlign=middle;html=1;labelBackgroundColor=#ffffff;rounded=0;" parent="1" edge="1">
            <mxGeometry relative="1" as="geometry">
              <mxPoint x="-1" as="offset" />
              <Array as="points" />
              <mxPoint x="618.5" y="247" as="sourcePoint" />
              <mxPoint x="746.5" y="247.57" as="targetPoint" />
            </mxGeometry>
          </mxCell>
        </UserObject>
        <UserObject label="&lt;div style=&quot;font-size: 1px&quot;&gt;&lt;font style=&quot;font-size:16.93px;font-family:Times New Roman;color:#000000;direction:ltr;letter-spacing:0px;line-height:120%;opacity:1&quot;&gt;&lt;b&gt;Code&lt;br/&gt;Documentation&lt;br/&gt;&lt;/b&gt;&lt;/font&gt;&lt;/div&gt;" tags="背景" id="25">
          <mxCell style="verticalAlign=middle;align=center;overflow=width;vsdxID=57;fillColor=none;gradientColor=none;shape=stencil(nZBLDoAgDERP0z3SIyjew0SURgSD+Lu9kMZoXLhwN9O+tukAlrNpJg1SzDH4QW/URgNYgZTkjA4UkwJUgGXng+6DX1zLfmoymdXo17xh5zmRJ6Q42BWCfc2oJfdAr+Yv+AP9Cb7OJ3H/2JG1HNGz/84klThPVCc=);strokeColor=none;points=[];labelBackgroundColor=none;rounded=0;html=1;whiteSpace=wrap;" parent="1" vertex="1">
            <mxGeometry x="612" y="153" width="123" height="46" as="geometry" />
          </mxCell>
        </UserObject>
        <UserObject label="&lt;div style=&quot;font-size: 1px&quot;&gt;&lt;font style=&quot;font-size:16.93px;font-family:Times New Roman;color:#000000;direction:ltr;letter-spacing:0px;line-height:120%;opacity:1&quot;&gt;&lt;b&gt;Bug&lt;br/&gt;&lt;/b&gt;&lt;/font&gt;&lt;/div&gt;" tags="背景" id="26">
          <mxCell style="verticalAlign=middle;align=center;overflow=width;vsdxID=58;fillColor=none;gradientColor=none;shape=stencil(nZBLDoAgDERP0z3SIyjew0SURgSD+Lu9kMZoXLhwN9O+tukAlrNpJg1SzDH4QW/URgNYgZTkjA4UkwJUgGXng+6DX1zLfmoymdXo17xh5zmRJ6Q42BWCfc2oJfdAr+Yv+AP9Cb7OJ3H/2JG1HNGz/84klThPVCc=);strokeColor=none;points=[];labelBackgroundColor=none;rounded=0;html=1;whiteSpace=wrap;" parent="1" vertex="1">
            <mxGeometry x="630" y="247" width="115" height="30" as="geometry" />
          </mxCell>
        </UserObject>
        <mxCell id="ssQb_-YuNbHTnixQjZuy-42" value="" style="edgeStyle=orthogonalEdgeStyle;rounded=0;orthogonalLoop=1;jettySize=auto;html=1;strokeWidth=3;entryX=0.455;entryY=0.938;entryDx=0;entryDy=0;entryPerimeter=0;" parent="1" target="9" edge="1">
          <mxGeometry relative="1" as="geometry">
            <mxPoint x="804.5384615384617" y="309.5" as="sourcePoint" />
            <mxPoint x="100" y="304.9999999999999" as="targetPoint" />
            <Array as="points">
              <mxPoint x="805" y="335" />
              <mxPoint x="93" y="335" />
            </Array>
          </mxGeometry>
        </mxCell>
        <UserObject label="&lt;div style=&quot;font-size: 1px&quot;&gt;&lt;font style=&quot;font-size:16.93px;font-family:Times New Roman;color:#000000;direction:ltr;letter-spacing:0px;line-height:120%;opacity:1&quot;&gt;&lt;b&gt;Testing Engineer&lt;br/&gt;&lt;/b&gt;&lt;/font&gt;&lt;/div&gt;" tags="背景" id="27">
          <mxCell style="verticalAlign=middle;align=center;overflow=width;vsdxID=59;fillColor=none;gradientColor=none;shape=stencil(nZBLDoAgDERP0z3SIyjew0SURgSD+Lu9kMZoXLhwN9O+tukAlrNpJg1SzDH4QW/URgNYgZTkjA4UkwJUgGXng+6DX1zLfmoymdXo17xh5zmRJ6Q42BWCfc2oJfdAr+Yv+AP9Cb7OJ3H/2JG1HNGz/84klThPVCc=);strokeColor=none;points=[];labelBackgroundColor=none;rounded=0;html=1;whiteSpace=wrap;" parent="1" vertex="1">
            <mxGeometry x="738.5" y="262" width="110" height="43" as="geometry" />
          </mxCell>
        </UserObject>
        <UserObject label="&lt;div style=&quot;font-size: 1px&quot;&gt;&lt;font style=&quot;font-size:16.93px;font-family:Times New Roman;color:#000000;direction:ltr;letter-spacing:0px;line-height:120%;opacity:1&quot;&gt;&lt;b&gt;Code Documentation&lt;br&gt;&lt;/b&gt;&lt;/font&gt;&lt;/div&gt;" tags="背景" id="28">
          <mxCell style="verticalAlign=middle;align=center;overflow=width;vsdxID=78;fillColor=none;gradientColor=none;shape=stencil(nZBLDoAgDERP0z3SIyjew0SURgSD+Lu9kMZoXLhwN9O+tukAlrNpJg1SzDH4QW/URgNYgZTkjA4UkwJUgGXng+6DX1zLfmoymdXo17xh5zmRJ6Q42BWCfc2oJfdAr+Yv+AP9Cb7OJ3H/2JG1HNGz/84klThPVCc=);strokeColor=none;points=[];labelBackgroundColor=none;rounded=0;html=1;whiteSpace=wrap;" parent="1" vertex="1">
            <mxGeometry x="303.5" y="337" width="300" height="20" as="geometry" />
          </mxCell>
        </UserObject>
        <mxCell id="ssQb_-YuNbHTnixQjZuy-43" value="" style="endArrow=none;dashed=1;html=1;strokeWidth=2;fontFamily=Times New Roman;curved=1;dashPattern=8 8;" parent="1" edge="1">
          <mxGeometry width="50" height="50" relative="1" as="geometry">
            <mxPoint x="383" y="321" as="sourcePoint" />
            <mxPoint x="381" y="117" as="targetPoint" />
          </mxGeometry>
        </mxCell>
        <mxCell id="ssQb_-YuNbHTnixQjZuy-46" value="&lt;font size=&quot;1&quot; face=&quot;Times New Roman&quot; style=&quot;&quot;&gt;&lt;b style=&quot;font-size: 24px;&quot;&gt;Modeling&lt;/b&gt;&lt;/font&gt;" style="text;html=1;align=center;verticalAlign=middle;resizable=0;points=[];autosize=1;strokeColor=none;fillColor=none;strokeWidth=4;" parent="1" vertex="1">
          <mxGeometry x="160" y="90" width="120" height="40" as="geometry" />
        </mxCell>
        <mxCell id="ssQb_-YuNbHTnixQjZuy-47" value="&lt;font size=&quot;1&quot; face=&quot;Times New Roman&quot; style=&quot;&quot;&gt;&lt;b style=&quot;font-size: 24px;&quot;&gt;Coding&lt;/b&gt;&lt;/font&gt;" style="text;html=1;align=center;verticalAlign=middle;resizable=0;points=[];autosize=1;strokeColor=none;fillColor=none;strokeWidth=4;" parent="1" vertex="1">
          <mxGeometry x="540" y="90" width="100" height="40" as="geometry" />
        </mxCell>
        <mxCell id="ssQb_-YuNbHTnixQjZuy-48" value="" style="endArrow=classic;html=1;rounded=0;strokeWidth=3;" parent="1" edge="1">
          <mxGeometry width="50" height="50" relative="1" as="geometry">
            <mxPoint x="360" y="179" as="sourcePoint" />
            <mxPoint x="290" y="179" as="targetPoint" />
            <Array as="points">
              <mxPoint x="360" y="150" />
              <mxPoint x="330" y="150" />
              <mxPoint x="290" y="150" />
            </Array>
          </mxGeometry>
        </mxCell>
        <mxCell id="ssQb_-YuNbHTnixQjZuy-49" value="&lt;font size=&quot;1&quot; face=&quot;Times New Roman&quot;&gt;&lt;b style=&quot;font-size: 16px;&quot;&gt;Rethink&lt;/b&gt;&lt;/font&gt;" style="text;html=1;align=center;verticalAlign=middle;resizable=0;points=[];autosize=1;strokeColor=none;fillColor=none;" parent="1" vertex="1">
          <mxGeometry x="283.5" y="123" width="80" height="30" as="geometry" />
        </mxCell>
        <UserObject label="" tags="背景" id="ssQb_-YuNbHTnixQjZuy-53">
          <mxCell style="vsdxID=6;fillColor=none;gradientColor=none;strokeColor=none;spacingTop=-3;spacingBottom=-3;spacingLeft=-3;spacingRight=-3;points=[];labelBackgroundColor=none;rounded=0;html=1;whiteSpace=wrap;" parent="1" vertex="1">
            <mxGeometry x="520" y="180" width="87" height="80" as="geometry" />
          </mxCell>
        </UserObject>
        <mxCell id="ssQb_-YuNbHTnixQjZuy-54" style="vsdxID=7;fillColor=#333333;gradientColor=none;shape=stencil(lZfbUlsxDEW/Jq8a2/L1mcJ/MCWUTClhQmjp31en5/i2nZjhLXGkLFmWtuwd37w93b/ud0a9nU/Hn/s/h4fz046/7Yw5vDztT4ezfNrx7Y5vHo+n/Y/T8f3lYf3+er9YLp9+HX8v//Cx+ulAMS5eRv3dVpT6//1uNf/+flrt9fazp5Q2B917qA9TbHTYbLallMjzZsWblSPnNqttKUVKYUq3lGxPFx/WwLfkEvADWcA3RhnvyfoW/3x4aXPVeKwrQVPUn8TrIFvi48d4revjFau81ARsQh/wYmWmfEU2Al+VE898puB7vE/EHvAlzZnuHak4oyvSuod7QwngCsgqn0FDVkB2MS9dITN5KBM3pl3+xPZwG4AswQDaWor8xZSLT05wOXJFjgFuyY98Zwe+m7eIJtg6B9IM+DBUnOrRzpCC9pjqgpRV8j0XVCF6MrpnJjI9NZkqR9uSkbTM8616rJV6MT06OYoG6kyjIMTSTIUdJf/TOhMfhl0vPlDiixVUmljhYbdWlR8mgtR61I26zwJGAQ1ZxErAIVEcBZxTH3CQBkIBL1bXykSKAPnNP2e+NAzymyh5tOIr++8T1nqUnfK0nVsXXfbtIF43SEkI5DFfrvY8Fys1Py+ZiNzjXRrOK3Ft1qwmusRdCszX4ZmbK3yiJku9wPZlDgWQEy8zGAcYKZBxURTQ0mJzrbVTbr+a+/q3VcoUKqkjjdPe1zxmJfXQXBeuOhH2bsdeESuOwI8UIvDdcNuwKQ+XyWUHJ0mihGdP0CnOlsP4qIkGZZMxG6cH7we2uKTQsxujKqsKy36Ea9LTi0OgcOHigDOMh8R7uUjhLTPW8uBi5ad4qbuAm68ykPlyL9FQ9F5qASbaYuWBH/MgvChSrUeZivMx1Lro4oNdulzhoFPEKukhYFSpanUxYE74hhgcMGBRJ5+GgLG0LY/vCEtQ261Rc4+fqmrrU58RFuhNjHUIJqjudvOMVpefEcOT68sO8EaTD/V993h4fl6fh+3v+B6UpfUtybf/AA==);strokeColor=none;strokeWidth=0;spacingTop=-3;spacingBottom=-3;spacingLeft=-3;spacingRight=-3;points=[];labelBackgroundColor=none;rounded=0;html=1;whiteSpace=wrap;" parent="ssQb_-YuNbHTnixQjZuy-53" vertex="1">
          <mxGeometry width="87.00000000000001" height="80" as="geometry" />
        </mxCell>
        <mxCell id="ssQb_-YuNbHTnixQjZuy-55" style="vsdxID=8;fillColor=#333333;gradientColor=none;shape=stencil(lVfLctswDPwaXTEkwOc5bf8j0ziNp2mccZI2/fvSlQgSoMW0N1leCAtgsZQWunl5uH0+LGheXs+n74dfx7vXh4U+LYjHp4fD+fharhb6vNDN/el8+HY+vT3drb+fby/Iy9WP08/LE97XuODAxksUmt/rHWvM399fVvjXt/OKt1uAgYq3MsC843rDR/B5w2y3cqxR77SBAjjcQNut7ABjn/vx+NRR9RbQC6oxAbkZ2RJiSbKNEbJXfEtJUfItqKAJG6AkCTfUVcJIgJKvxmu+iJDswJeZIKOcG/hmknwLilSDL/2y+3xtgESCcJnItL/Wt0lbnrTmaxF8knxzhiTpZkAr2TJmJ3kCDCp3e2rtSy24zxxQpi5KHFPjNDcC0lC3KtuoxAhZScoCBZk4JXB5oqhCvlLdVAmRZkSp0zZzJ0mUCJKaj5FEKQ5MpybhDChZGDAqq3Ng1GyQN6wmdr4tcN1DSGG/QxHByKUrLQ1TEUcCJ8lmApOVkCwY5RE5cQGspLJBbtFS8naWPnjWRa9j5VEFpZrVbLcm76ycJOZqqz60fnlSFA1YqT1iv9gTX6jq5NJaTJNfaOJCzmWUEgoKVWsLys3sN7EIN+XkGdkC197rM9sHe2+q8mOyBbUJrHlvZrmzbDPM02c+LNpJa5UKCsipk7WgyA7ZozqpGupqq8ouqtkOAcOKO701PZO242Hky1URo1L4v24VXzBKWf0YsKGUsfUjbelz0un3e1VUl6WuBh0OexAhqRXvFd5E70my7belid6q02rYw4HwR4srNz3bdmawIVGYVZgioJJvi+EKEw0VZg9BFtiDqodOpNvD63uBm/p9H1GnwbbNVLuC6pk4eFLfKFKgneQ5tDcSOzxXWzvroPEjDaHrVatXO4Yz8+2Y3OOZ21LYNipl3aUaHN/sKHzYpkFQku4/KLBctG+a++Pj4/pJ1P+vv4HKrfX7iT7/AQ==);strokeColor=none;strokeWidth=0;spacingTop=-3;spacingBottom=-3;spacingLeft=-3;spacingRight=-3;points=[];labelBackgroundColor=none;rounded=0;html=1;whiteSpace=wrap;" parent="ssQb_-YuNbHTnixQjZuy-53" vertex="1">
          <mxGeometry x="25.329113924050635" y="21.62162162162162" width="34.139240506329116" height="32.43243243243243" as="geometry" />
        </mxCell>
        <UserObject label="" tags="背景" id="ssQb_-YuNbHTnixQjZuy-56">
          <mxCell style="vsdxID=6;fillColor=none;gradientColor=none;strokeColor=none;spacingTop=-3;spacingBottom=-3;spacingLeft=-3;spacingRight=-3;points=[];labelBackgroundColor=none;rounded=0;html=1;whiteSpace=wrap;" parent="1" vertex="1">
            <mxGeometry x="750" y="180" width="87" height="80" as="geometry" />
          </mxCell>
        </UserObject>
        <mxCell id="ssQb_-YuNbHTnixQjZuy-57" style="vsdxID=7;fillColor=#333333;gradientColor=none;shape=stencil(lZfbUlsxDEW/Jq8a2/L1mcJ/MCWUTClhQmjp31en5/i2nZjhLXGkLFmWtuwd37w93b/ud0a9nU/Hn/s/h4fz046/7Yw5vDztT4ezfNrx7Y5vHo+n/Y/T8f3lYf3+er9YLp9+HX8v//Cx+ulAMS5eRv3dVpT6//1uNf/+flrt9fazp5Q2B917qA9TbHTYbLallMjzZsWblSPnNqttKUVKYUq3lGxPFx/WwLfkEvADWcA3RhnvyfoW/3x4aXPVeKwrQVPUn8TrIFvi48d4revjFau81ARsQh/wYmWmfEU2Al+VE898puB7vE/EHvAlzZnuHak4oyvSuod7QwngCsgqn0FDVkB2MS9dITN5KBM3pl3+xPZwG4AswQDaWor8xZSLT05wOXJFjgFuyY98Zwe+m7eIJtg6B9IM+DBUnOrRzpCC9pjqgpRV8j0XVCF6MrpnJjI9NZkqR9uSkbTM8616rJV6MT06OYoG6kyjIMTSTIUdJf/TOhMfhl0vPlDiixVUmljhYbdWlR8mgtR61I26zwJGAQ1ZxErAIVEcBZxTH3CQBkIBL1bXykSKAPnNP2e+NAzymyh5tOIr++8T1nqUnfK0nVsXXfbtIF43SEkI5DFfrvY8Fys1Py+ZiNzjXRrOK3Ft1qwmusRdCszX4ZmbK3yiJku9wPZlDgWQEy8zGAcYKZBxURTQ0mJzrbVTbr+a+/q3VcoUKqkjjdPe1zxmJfXQXBeuOhH2bsdeESuOwI8UIvDdcNuwKQ+XyWUHJ0mihGdP0CnOlsP4qIkGZZMxG6cH7we2uKTQsxujKqsKy36Ea9LTi0OgcOHigDOMh8R7uUjhLTPW8uBi5ad4qbuAm68ykPlyL9FQ9F5qASbaYuWBH/MgvChSrUeZivMx1Lro4oNdulzhoFPEKukhYFSpanUxYE74hhgcMGBRJ5+GgLG0LY/vCEtQ261Rc4+fqmrrU58RFuhNjHUIJqjudvOMVpefEcOT68sO8EaTD/V993h4fl6fh+3v+B6UpfUtybf/AA==);strokeColor=none;strokeWidth=0;spacingTop=-3;spacingBottom=-3;spacingLeft=-3;spacingRight=-3;points=[];labelBackgroundColor=none;rounded=0;html=1;whiteSpace=wrap;" parent="ssQb_-YuNbHTnixQjZuy-56" vertex="1">
          <mxGeometry width="87.00000000000001" height="80" as="geometry" />
        </mxCell>
        <mxCell id="ssQb_-YuNbHTnixQjZuy-58" style="vsdxID=8;fillColor=#333333;gradientColor=none;shape=stencil(lVfLctswDPwaXTEkwOc5bf8j0ziNp2mccZI2/fvSlQgSoMW0N1leCAtgsZQWunl5uH0+LGheXs+n74dfx7vXh4U+LYjHp4fD+fharhb6vNDN/el8+HY+vT3drb+fby/Iy9WP08/LE97XuODAxksUmt/rHWvM399fVvjXt/OKt1uAgYq3MsC843rDR/B5w2y3cqxR77SBAjjcQNut7ABjn/vx+NRR9RbQC6oxAbkZ2RJiSbKNEbJXfEtJUfItqKAJG6AkCTfUVcJIgJKvxmu+iJDswJeZIKOcG/hmknwLilSDL/2y+3xtgESCcJnItL/Wt0lbnrTmaxF8knxzhiTpZkAr2TJmJ3kCDCp3e2rtSy24zxxQpi5KHFPjNDcC0lC3KtuoxAhZScoCBZk4JXB5oqhCvlLdVAmRZkSp0zZzJ0mUCJKaj5FEKQ5MpybhDChZGDAqq3Ng1GyQN6wmdr4tcN1DSGG/QxHByKUrLQ1TEUcCJ8lmApOVkCwY5RE5cQGspLJBbtFS8naWPnjWRa9j5VEFpZrVbLcm76ycJOZqqz60fnlSFA1YqT1iv9gTX6jq5NJaTJNfaOJCzmWUEgoKVWsLys3sN7EIN+XkGdkC197rM9sHe2+q8mOyBbUJrHlvZrmzbDPM02c+LNpJa5UKCsipk7WgyA7ZozqpGupqq8ouqtkOAcOKO701PZO242Hky1URo1L4v24VXzBKWf0YsKGUsfUjbelz0un3e1VUl6WuBh0OexAhqRXvFd5E70my7belid6q02rYw4HwR4srNz3bdmawIVGYVZgioJJvi+EKEw0VZg9BFtiDqodOpNvD63uBm/p9H1GnwbbNVLuC6pk4eFLfKFKgneQ5tDcSOzxXWzvroPEjDaHrVatXO4Yz8+2Y3OOZ21LYNipl3aUaHN/sKHzYpkFQku4/KLBctG+a++Pj4/pJ1P+vv4HKrfX7iT7/AQ==);strokeColor=none;strokeWidth=0;spacingTop=-3;spacingBottom=-3;spacingLeft=-3;spacingRight=-3;points=[];labelBackgroundColor=none;rounded=0;html=1;whiteSpace=wrap;" parent="ssQb_-YuNbHTnixQjZuy-56" vertex="1">
          <mxGeometry x="25.329113924050635" y="21.62162162162162" width="34.139240506329116" height="32.43243243243243" as="geometry" />
        </mxCell>
      </root>
    </mxGraphModel>
  </diagram>
</mxfile>
